<svg id="Слой_1" data-name="Слой 1" xmlns="http://www.w3.org/2000/svg" viewBox="0 0 193.69 167.36"><defs><style>.cls-1{fill:#0b4785;stroke:#0b4785;stroke-width:0.41px;}.cls-1,.cls-2{stroke-miterlimit:10;}.cls-2{fill:#16427f;stroke:#16427f;stroke-width:0.2px;}.cls-11{fill:#79787b;}</style></defs><title>logo</title><path class="cls-1" d="M175.77,156.81v-1.37a8.73,8.73,0,0,0-.23-2.31,1.68,1.68,0,0,0-1.09-1.1,8,8,0,0,0-2.68-.34q-1.55,0-1.55-.81a0.86,0.86,0,0,1,1.05-.88q1.41,0,3.57.13t3.33,0.13q1.19,0,3.4-.13t3.62-.13a0.86,0.86,0,0,1,1,.88q0,0.81-1.59.81A8,8,0,0,0,182,152a1.67,1.67,0,0,0-1.09,1.1,8.78,8.78,0,0,0-.23,2.31v13q0,1,.36,1a0.83,0.83,0,0,0,.68-0.5l11.58-11.78,1.16-1.24a16.48,16.48,0,0,0,1.33-1.59,2.26,2.26,0,0,0,.53-1.22q0-1.37-2-1.37t-1.85-.81a0.86,0.86,0,0,1,1.05-.88q1.38,0,3.56.13t3.35,0.13q1.05,0,3-.13t3.12-.13a0.77,0.77,0,0,1,.92.81q0,0.88-1.83.88a11.14,11.14,0,0,0-4.2.62,17.89,17.89,0,0,0-5.29,4.11l-6.59,6.73q-1.55,1.35-1.55,1.93a5.81,5.81,0,0,0,1.17,1.81l11.08,14.16a43.32,43.32,0,0,0,4.38,5.05,6.28,6.28,0,0,0,1.53,1.06,5.72,5.72,0,0,0,1.79.37q1.61,0,1.61.75t-1.35.81q-1.29,0-3.82-.12t-3.82-.12q-1.13,0-3.32.12t-3.28.12q-1.29,0-1.29-.68t1.73-.75q3.2,0,3.2-1.55,0-1-2.15-3.56l-9.61-12.41-0.36-.46a6.47,6.47,0,0,0-.62-0.71,0.78,0.78,0,0,0-.51-0.26,0.93,0.93,0,0,0-.55.28q-0.32.28-.77,0.75l-0.51.52-0.87.82a4.7,4.7,0,0,0-.71.85,1.63,1.63,0,0,0-.28.89v9.55a17.69,17.69,0,0,0,.22,3.36,1.91,1.91,0,0,0,1,1.39,7,7,0,0,0,2.75.43q1.59,0,1.59.75a0.83,0.83,0,0,1-1,.81q-1.17,0-3.44-.12t-3.46-.12q-1.17,0-3.5.12t-3.52.12q-1.05,0-1.05-.81t1.55-.75a7.61,7.61,0,0,0,2.69-.35,1.72,1.72,0,0,0,1.08-1.11,8.94,8.94,0,0,0,.23-2.35V156.81Z" transform="translate(-170.01 -110.01)"/><path class="cls-1" d="M227.57,173.72a11.3,11.3,0,0,0,1.63-.9,1.33,1.33,0,0,0,.53-0.8,10,10,0,0,0,.1-1.8v-2.74a10.06,10.06,0,0,0-.68-4.24q-0.68-1.37-3.26-1.37a6.61,6.61,0,0,0-4.29,1.32,10.34,10.34,0,0,0-2.8,3.91,13.58,13.58,0,0,1-.74,1.45,2.21,2.21,0,0,1-1,.81,6.44,6.44,0,0,1-2.65.81,0.68,0.68,0,0,1-.8-0.75q0-2.21,2.59-4.43a16.74,16.74,0,0,1,5.13-3.14,16,16,0,0,1,5.89-1.16q3.86,0,5.61,1.61a2.94,2.94,0,0,1,1,1.61,14.29,14.29,0,0,1,.22,2.95v14.72q0,5,2.15,5a2,2,0,0,0,1.12-.29,6.56,6.56,0,0,0,.95-0.78A1.5,1.5,0,0,1,239,185a0.42,0.42,0,0,1,.44.5q0,0.59-1.47,1.93a8.13,8.13,0,0,1-4.38,1.81,2.47,2.47,0,0,1-2-.88,9.58,9.58,0,0,1-1.29-2.18,2.16,2.16,0,0,0-.87-1.3,17.8,17.8,0,0,0-1.77,1.35,20.38,20.38,0,0,1-3.72,2.37,9.78,9.78,0,0,1-4.41,1,6.44,6.44,0,0,1-4-1.35,4.28,4.28,0,0,1-1.75-3.57,5.43,5.43,0,0,1,1.44-3.66,12.89,12.89,0,0,1,3.13-2.65q1.68-1,4.54-2.43Zm-4.44,3.49a13.49,13.49,0,0,0-3.52,2.5,4.65,4.65,0,0,0-1.29,3.36,3.27,3.27,0,0,0,1.23,2.7,4.69,4.69,0,0,0,3,1,7.88,7.88,0,0,0,5.73-2.5,5.13,5.13,0,0,0,1.29-2,10.7,10.7,0,0,0,.25-2.65v-3.74q0-1.75-.44-1.75a0.86,0.86,0,0,0-.35.11,2.29,2.29,0,0,1-.33.15Z" transform="translate(-170.01 -110.01)"/><path class="cls-1" d="M245.91,170.77q0-3.3-.62-4a2.3,2.3,0,0,0-1.79-.5h-0.8q-0.74,0-.74-0.5a0.68,0.68,0,0,1,.22-0.54,1.92,1.92,0,0,1,.66-0.34l0.53-.18a12.47,12.47,0,0,0,2.82-1.38,9.49,9.49,0,0,0,2.29-1.86,2.35,2.35,0,0,1,1.11-.81q0.56,0,.56,1v3.43q5.17-4.32,10.41-4.42a11.24,11.24,0,0,1,5,1.24,15.11,15.11,0,0,1,4.32,3.11,13.82,13.82,0,0,1,3.76,9.85,14.4,14.4,0,0,1-2,7.57,14.15,14.15,0,0,1-5.56,5.26,16.28,16.28,0,0,1-7.81,1.89,19.75,19.75,0,0,1-6.15-1.31c-0.14,0-.38-0.08-0.73-0.17a3.51,3.51,0,0,0-.68-0.14q-0.5,0-.5,1.87v6.67c0,0.24,0,.57,0,1s0,0.71,0,.88a3.92,3.92,0,0,0,.55,2.27,3.12,3.12,0,0,0,2.28,1,10.75,10.75,0,0,1,1.36.18,0.55,0.55,0,0,1,.37.62,0.63,0.63,0,0,1-.74.68q-1,0-2.93-.12t-2.86-.12q-1,0-2.95.12t-2.92.12q-0.86,0-.86-0.62a0.59,0.59,0,0,1,.39-0.67,9.14,9.14,0,0,1,1.34-.2,3.06,3.06,0,0,0,2.29-1,4,4,0,0,0,.53-2.28q0-.26,0-0.88c0-.42,0-0.75,0-1V170.77h0Zm19.77-4.17a10.32,10.32,0,0,0-11.49-2.44,6.69,6.69,0,0,0-3,2.44q-1,1.19-1,4.29v9.67a14.32,14.32,0,0,0,.38,3.54,5.28,5.28,0,0,0,1.59,2.58,8.14,8.14,0,0,0,5.35,1.8,10.38,10.38,0,0,0,6-1.8,11.82,11.82,0,0,0,4-4.75A14.25,14.25,0,0,0,269,175.7,12.75,12.75,0,0,0,265.69,166.6Z" transform="translate(-170.01 -110.01)"/><path class="cls-1" d="M301.42,161.48q0.56,0,.56,1.75l-0.38,7.6q0,1.07-.74,1.07a0.7,0.7,0,0,1-.68-0.87q0-.11-0.62-2.63a9.46,9.46,0,0,0-1.17-3.24,5.21,5.21,0,0,0-2.2-1.51,8.07,8.07,0,0,0-3-.56h-5.29a0.94,0.94,0,0,0-.92.37,3,3,0,0,0-.19,1.26v17.77q0,0.37,0,1c0,0.42,0,.71,0,0.88a3.82,3.82,0,0,0,.58,2.29,3.08,3.08,0,0,0,2.26,1q1.71,0,1.71.81a0.63,0.63,0,0,1-.74.68q-1,0-3-.12t-2.85-.12q-1,0-3,.12t-2.9.12q-0.86,0-.86-0.62,0-.87,1.71-0.87a3.07,3.07,0,0,0,2.29-.94,3.94,3.94,0,0,0,.56-2.3q0-.26,0-0.88c0-.42,0-0.75,0-1V167.85q0-.35,0-1c0-.42,0-0.72,0-0.9a4,4,0,0,0-.55-2.3,3.06,3.06,0,0,0-2.29-.94q-1.71,0-1.71-.88,0-.62.86-0.62,1.14,0,3,.13t2.85,0.13h16.64Z" transform="translate(-170.01 -110.01)"/><path class="cls-1" d="M314,171.9a4.64,4.64,0,0,0-2.05.29,1.93,1.93,0,0,0-.47,1.65,14.71,14.71,0,0,0,1.45,6.51,11.54,11.54,0,0,0,4.18,4.76,11.37,11.37,0,0,0,6.32,1.77,10.39,10.39,0,0,0,4.48-.86,13.28,13.28,0,0,0,3.12-2,6.34,6.34,0,0,1,1.51-1.16,0.44,0.44,0,0,1,.5.49q0,0.72-2.41,2.82a14.36,14.36,0,0,1-9.73,3.49,13.59,13.59,0,0,1-7.16-1.94,13.89,13.89,0,0,1-5.05-5.24,14.49,14.49,0,0,1-1.83-7.16,13.17,13.17,0,0,1,4.44-10.41,16.13,16.13,0,0,1,11.08-4.17,13,13,0,0,1,5,1,9.47,9.47,0,0,1,3.87,2.9,9.92,9.92,0,0,1,1.55,3,10.23,10.23,0,0,1,.62,3.34q0,1.07-.75,1.07H314ZM319,170.4a34.85,34.85,0,0,0,7.14-.5q2.29-.53,2.29-2.49a5.35,5.35,0,0,0-1.61-3.68,7,7,0,0,0-5.35-1.93,9.59,9.59,0,0,0-4.47,1.1,9.81,9.81,0,0,0-3.53,3.09,9.06,9.06,0,0,0-1,1.76,4.75,4.75,0,0,0-.53,1.84,0.64,0.64,0,0,0,.47.67,5.94,5.94,0,0,0,1.62.15h5Z" transform="translate(-170.01 -110.01)"/><path class="cls-1" d="M362.27,168.66q-0.74,0-2.1-2.17a21.21,21.21,0,0,0-2.6-3.43,4.48,4.48,0,0,0-3.37-1.26,9.54,9.54,0,0,0-6.23,2.55,12.44,12.44,0,0,0-2.41,2.87,13.53,13.53,0,0,0-1.5,3.5,14.07,14.07,0,0,0-.51,3.73,13.84,13.84,0,0,0,1.47,6.17,12.48,12.48,0,0,0,4.11,4.83,10.15,10.15,0,0,0,5.95,1.84,9.7,9.7,0,0,0,7.08-2.76,2.67,2.67,0,0,1,.92-0.75,0.42,0.42,0,0,1,.44.5q0,0.64-1.85,2.24a13.58,13.58,0,0,1-8.93,3.07,13.17,13.17,0,0,1-6.88-1.9,14.13,14.13,0,0,1-5-5.12,13.67,13.67,0,0,1,.38-14.43,16.62,16.62,0,0,1,13.75-7.49,16.6,16.6,0,0,1,4,.53,10.63,10.63,0,0,1,3.53,1.52,1.72,1.72,0,0,1,.56,1.49c0,0.15,0,.37,0,0.64s0,0.48,0,.61,0,0.19,0,.5,0,0.59,0,.81Q363.07,168.66,362.27,168.66Z" transform="translate(-170.01 -110.01)"/><path class="cls-2" d="M199.82,270.29l0.22,0a0.6,0.6,0,0,1,.26.09,0.25,0.25,0,0,1,.1.22,0.33,0.33,0,0,1-.4.34l-1.12,0-1.11,0-1.19,0-1.17,0a0.33,0.33,0,0,1-.4-0.34c0-.22.18-0.34,0.55-0.34a1.39,1.39,0,0,0,1-.39,1.71,1.71,0,0,0,.26-1c0-.09,0-0.23,0-0.42s0-.35,0-0.47v-8.24q0-.51-0.27-0.51h-0.5a3,3,0,0,0-2,.62,7.35,7.35,0,0,0-1.52,2v-0.05a0.58,0.58,0,0,1-.16.37,0.45,0.45,0,0,1-.34.19,0.27,0.27,0,0,1-.27-0.34,0.82,0.82,0,0,1,0-.26l0.08-.22v0l0.92-3.42v0a0.31,0.31,0,0,1,.33-0.36,0.22,0.22,0,0,1,.18.1,0.34,0.34,0,0,1,.07.21,0.46,0.46,0,0,0,.12.36,1.8,1.8,0,0,0,.9.14h7.06a2.82,2.82,0,0,0,.74-0.07,0.56,0.56,0,0,0,.36-0.35v0a0.51,0.51,0,0,1,.09-0.29,0.29,0.29,0,0,1,.26-0.14q0.25,0,.25.82l-0.12,3.25a0.34,0.34,0,0,1-.33.42c-0.18,0-.27-0.12-0.27-0.36v0q0-.1-0.15-0.6a5.66,5.66,0,0,0-.28-0.89,2,2,0,0,0-.44-0.67,2.29,2.29,0,0,0-1.65-.48h-1.13a0.21,0.21,0,0,0-.24.13,4,4,0,0,0,0,.77V268q0,0.18,0,.49c0,0.2,0,.35,0,0.44a1.63,1.63,0,0,0,.25,1A1.43,1.43,0,0,0,199.82,270.29Z" transform="translate(-170.01 -110.01)"/><path class="cls-2" d="M204.81,264.56a7,7,0,0,1,.45-2.45,6.11,6.11,0,0,1,1.26-2.07,5.81,5.81,0,0,1,4.51-1.88,5.9,5.9,0,0,1,4.25,1.62,5.76,5.76,0,0,1,1,1.33,6.71,6.71,0,0,1,.68,1.66,6.94,6.94,0,0,1,.23,1.77,7,7,0,0,1-.49,2.63,6.48,6.48,0,0,1-1.35,2.11,6.14,6.14,0,0,1-2,1.39,6,6,0,0,1-5.49-.36,6.18,6.18,0,0,1-2.27-2.38A6.91,6.91,0,0,1,204.81,264.56Zm10.52,0.2a8.62,8.62,0,0,0-.49-2.87,5.45,5.45,0,0,0-1.48-2.3,3.4,3.4,0,0,0-2.36-.89,3.5,3.5,0,0,0-2.3.81,5.09,5.09,0,0,0-1.49,2.13,7.58,7.58,0,0,0-.51,2.78,8.36,8.36,0,0,0,.53,2.89,6.06,6.06,0,0,0,1.54,2.39,3.32,3.32,0,0,0,2.35.94,3.22,3.22,0,0,0,2.25-.89,5.72,5.72,0,0,0,1.47-2.25A7.78,7.78,0,0,0,215.33,264.77Z" transform="translate(-170.01 -110.01)"/><path class="cls-2" d="M220.91,262.72a3.66,3.66,0,0,0-.25-1.79,0.88,0.88,0,0,0-.73-0.23H219.6c-0.2,0-.3-0.08-0.3-0.23a0.32,0.32,0,0,1,.09-0.24,0.75,0.75,0,0,1,.27-0.15l0.22-.08a4.92,4.92,0,0,0,1.15-.62,3.94,3.94,0,0,0,.93-0.84,1,1,0,0,1,.45-0.36q0.23,0,.23.45v1.54a6.47,6.47,0,0,1,4.23-2,4.22,4.22,0,0,1,2,.56,6.22,6.22,0,0,1,1.76,1.4,6.6,6.6,0,0,1,1.53,4.43,7,7,0,0,1-.82,3.41,6,6,0,0,1-2.26,2.37,6.12,6.12,0,0,1-3.18.85,7.36,7.36,0,0,1-2.5-.59l-0.3-.08a1.32,1.32,0,0,0-.28-0.06c-0.13,0-.2.28-0.2,0.84v3c0,0.11,0,.26,0,0.45s0,0.32,0,.4a1.9,1.9,0,0,0,.22,1,1.22,1.22,0,0,0,.93.44,4,4,0,0,1,.55.08,0.25,0.25,0,0,1,.15.28,0.27,0.27,0,0,1-.3.31q-0.4,0-1.19-.05t-1.16-.05q-0.4,0-1.2.05t-1.19.05a0.28,0.28,0,0,1-.35-0.28,0.27,0.27,0,0,1,.16-0.3,3.32,3.32,0,0,1,.54-0.09,1.2,1.2,0,0,0,.93-0.43,2,2,0,0,0,.22-1c0-.08,0-0.21,0-0.4s0-.34,0-0.45V262.72h0Zm8-1.88a3.9,3.9,0,0,0-3.06-1.46,3.74,3.74,0,0,0-1.61.36,2.81,2.81,0,0,0-1.22,1.1,3.24,3.24,0,0,0-.42,1.93v4.35a7.09,7.09,0,0,0,.15,1.59,2.44,2.44,0,0,0,.65,1.16,3.11,3.11,0,0,0,2.18.81,3.93,3.93,0,0,0,2.45-.81,5.21,5.21,0,0,0,1.64-2.14,7,7,0,0,0,.57-2.8A6.11,6.11,0,0,0,228.95,260.84Z" transform="translate(-170.01 -110.01)"/><path class="cls-2" d="M243.47,258.54c0.15,0,.23.26,0.23,0.79l-0.15,3.42c0,0.32-.1.48-0.3,0.48s-0.27-.13-0.27-0.39l-0.25-1.18a4.57,4.57,0,0,0-.47-1.45,2.14,2.14,0,0,0-.9-0.68,3,3,0,0,0-1.21-.25H238a0.37,0.37,0,0,0-.38.17,1.49,1.49,0,0,0-.08.57v8c0,0.11,0,.26,0,0.45s0,0.32,0,.4a1.86,1.86,0,0,0,.24,1,1.2,1.2,0,0,0,.92.43q0.7,0,.7.36a0.27,0.27,0,0,1-.3.31q-0.41,0-1.2-.05t-1.16-.05q-0.4,0-1.2.05t-1.18.05a0.28,0.28,0,0,1-.35-0.28q0-.39.7-0.39a1.2,1.2,0,0,0,.93-0.42,1.93,1.93,0,0,0,.23-1c0-.08,0-0.21,0-0.4s0-.34,0-0.45V261.4q0-.16,0-0.44c0-.19,0-0.32,0-0.4a1.94,1.94,0,0,0-.22-1,1.19,1.19,0,0,0-.93-0.42c-0.46,0-.7-0.13-0.7-0.4a0.28,0.28,0,0,1,.35-0.28q0.46,0,1.22.06t1.16,0.06h6.76Z" transform="translate(-170.01 -110.01)"/><path class="cls-2" d="M245.62,264.56a7,7,0,0,1,.45-2.45,6.12,6.12,0,0,1,1.26-2.07,5.81,5.81,0,0,1,4.51-1.88,5.91,5.91,0,0,1,4.26,1.62,5.79,5.79,0,0,1,1,1.33,6.71,6.71,0,0,1,.68,1.66,6.94,6.94,0,0,1,.23,1.77,7,7,0,0,1-.49,2.63,6.51,6.51,0,0,1-1.35,2.11,6.14,6.14,0,0,1-2,1.39,6,6,0,0,1-5.49-.36,6.18,6.18,0,0,1-2.27-2.38A6.91,6.91,0,0,1,245.62,264.56Zm10.52,0.2a8.64,8.64,0,0,0-.49-2.87,5.46,5.46,0,0,0-1.48-2.3,3.4,3.4,0,0,0-2.36-.89,3.5,3.5,0,0,0-2.3.81,5.09,5.09,0,0,0-1.5,2.13,7.58,7.58,0,0,0-.51,2.78,8.36,8.36,0,0,0,.53,2.89,6,6,0,0,0,1.54,2.39,3.32,3.32,0,0,0,2.35.94,3.21,3.21,0,0,0,2.25-.89,5.72,5.72,0,0,0,1.47-2.25A7.8,7.8,0,0,0,256.14,264.77Z" transform="translate(-170.01 -110.01)"/><path class="cls-2" d="M261.59,261.4v-0.65q0-1.65-.83-1.65h-0.7a0.28,0.28,0,0,1-.3-0.34q0-.28.75-0.28,2.25,0.06,3.85.05a9.7,9.7,0,0,1,3.71.51,3,3,0,0,1,1.25,1,2.61,2.61,0,0,1,.5,1.55,2.15,2.15,0,0,1-.74,1.72,4.25,4.25,0,0,1-1.86.89,4.68,4.68,0,0,1,1.65.53,3.42,3.42,0,0,1,1.23,1.13,3,3,0,0,1-1,4.23,3.33,3.33,0,0,1-1.32.63,7.94,7.94,0,0,1-1.68.15l-1.68,0-1.7,0q-0.47,0-1.33.05l-0.36,0-0.45,0h-0.36q-0.45,0-.45-0.28a0.43,0.43,0,0,1,.5-0.39,1.93,1.93,0,0,0,.86-0.2,0.79,0.79,0,0,0,.38-0.45,2.75,2.75,0,0,0,.09-0.78V261.4h0Zm1.73,1.68a1.82,1.82,0,0,0,.11.85,1.09,1.09,0,0,0,.71.14h1a2.94,2.94,0,0,0,2-.62,2.17,2.17,0,0,0,.7-1.71q0-2.64-2.93-2.64a1.92,1.92,0,0,0-1.43.36,2,2,0,0,0-.2,1.12v2.49h0Zm0,5.42a3.75,3.75,0,0,0,.09.93,1,1,0,0,0,.46.58,3.25,3.25,0,0,0,1.71.31,4.12,4.12,0,0,0,1.2-.15,2.46,2.46,0,0,0,.95-0.61,2.7,2.7,0,0,0,.93-1.94,2.75,2.75,0,0,0-1.28-2.5,4.22,4.22,0,0,0-2.21-.5h-0.67a5.42,5.42,0,0,0-.83,0,0.34,0.34,0,0,0-.28.2,1.77,1.77,0,0,0-.07.6v3Z" transform="translate(-170.01 -110.01)"/><path class="cls-2" d="M274.11,261.4q0-.16,0-0.44c0-.19,0-0.32,0-0.4a2,2,0,0,0-.22-1,1.19,1.19,0,0,0-.93-0.42c-0.46,0-.7-0.13-0.7-0.4a0.28,0.28,0,0,1,.35-0.28q0.46,0,1.22.06t1.16,0.06q0.37,0,1.12-.06t1.24-.06a0.27,0.27,0,0,1,.3.32q0,0.36-.7.36a1.19,1.19,0,0,0-.93.43,1.9,1.9,0,0,0-.23,1c0,0.08,0,.22,0,0.4s0,0.33,0,.44v5.24a1,1,0,0,0,.1.73,1.22,1.22,0,0,0,.35-0.28l5.13-6.53a2,2,0,0,0-.21-1,1.15,1.15,0,0,0-.92-0.42q-0.7,0-.7-0.4a0.28,0.28,0,0,1,.35-0.28q0.46,0,1.22.06t1.16,0.06c0.24,0,.62,0,1.12-0.06s0.91-.06,1.24-0.06a0.27,0.27,0,0,1,.3.32q0,0.36-.7.36a1.19,1.19,0,0,0-.93.43,1.9,1.9,0,0,0-.23,1c0,0.08,0,.22,0,0.4s0,0.33,0,.44V268c0,0.11,0,.26,0,0.45s0,0.32,0,.4a1.86,1.86,0,0,0,.24,1,1.2,1.2,0,0,0,.92.43c0.46,0,.7.12,0.7,0.36a0.27,0.27,0,0,1-.3.31q-0.41,0-1.2-.05c-0.53,0-.91-0.05-1.16-0.05s-0.67,0-1.2.05-0.92.05-1.18,0.05a0.28,0.28,0,0,1-.35-0.28q0-.39.7-0.39a1.2,1.2,0,0,0,.93-0.42,1.93,1.93,0,0,0,.23-1c0-.08,0-0.21,0-0.4s0-.34,0-0.45v-5.24a1.16,1.16,0,0,0-.13-0.84,0.93,0.93,0,0,0-.37.37l-5.08,6.42a2.35,2.35,0,0,0,.21,1.17,1.15,1.15,0,0,0,.92.42q0.7,0,.7.36a0.27,0.27,0,0,1-.3.31q-0.41,0-1.2-.05c-0.53,0-.91-0.05-1.16-0.05s-0.67,0-1.2.05-0.92.05-1.18,0.05a0.28,0.28,0,0,1-.35-0.28q0-.39.7-0.39a1.2,1.2,0,0,0,.93-0.42,1.93,1.93,0,0,0,.23-1c0-.08,0-0.21,0-0.4s0-.34,0-0.45V261.4h0Z" transform="translate(-170.01 -110.01)"/><path class="cls-2" d="M288.14,261.4q0-.16,0-0.44c0-.19,0-0.32,0-0.4a2,2,0,0,0-.22-1,1.19,1.19,0,0,0-.93-0.42c-0.46,0-.7-0.13-0.7-0.4a0.28,0.28,0,0,1,.35-0.28q0.46,0,1.22.06t1.16,0.06q0.37,0,1.12-.06t1.24-.06a0.27,0.27,0,0,1,.3.32q0,0.36-.7.36a1.19,1.19,0,0,0-.93.43,1.9,1.9,0,0,0-.23,1c0,0.08,0,.22,0,0.4s0,0.33,0,.44v5.24a1,1,0,0,0,.1.73,1.22,1.22,0,0,0,.35-0.28l5.13-6.53a2,2,0,0,0-.21-1,1.15,1.15,0,0,0-.92-0.42q-0.7,0-.7-0.4a0.28,0.28,0,0,1,.35-0.28q0.46,0,1.22.06t1.16,0.06c0.24,0,.62,0,1.12-0.06s0.91-.06,1.24-0.06a0.27,0.27,0,0,1,.3.32q0,0.36-.7.36a1.19,1.19,0,0,0-.93.43,1.9,1.9,0,0,0-.23,1c0,0.08,0,.22,0,0.4s0,0.33,0,.44V268c0,0.11,0,.26,0,0.45s0,0.32,0,.4a1.86,1.86,0,0,0,.24,1,1.2,1.2,0,0,0,.92.43c0.46,0,.7.12,0.7,0.36a0.27,0.27,0,0,1-.3.31q-0.41,0-1.2-.05c-0.53,0-.91-0.05-1.16-0.05s-0.67,0-1.2.05S294.23,271,294,271a0.28,0.28,0,0,1-.35-0.28q0-.39.7-0.39a1.2,1.2,0,0,0,.93-0.42,1.93,1.93,0,0,0,.23-1c0-.08,0-0.21,0-0.4s0-.34,0-0.45v-5.24a0.45,0.45,0,1,0-.5-0.47l-5.08,6.42a2.35,2.35,0,0,0,.21,1.17,1.15,1.15,0,0,0,.92.42q0.7,0,.7.36a0.27,0.27,0,0,1-.3.31q-0.41,0-1.2-.05c-0.53,0-.91-0.05-1.16-0.05s-0.67,0-1.2.05-0.92.05-1.18,0.05a0.28,0.28,0,0,1-.35-0.28q0-.39.7-0.39a1.2,1.2,0,0,0,.93-0.42,1.93,1.93,0,0,0,.23-1c0-.08,0-0.21,0-0.4s0-.34,0-0.45V261.4h0Zm8.09-8a2.46,2.46,0,0,1-.65,1.52,3.82,3.82,0,0,1-5.41.36,4.56,4.56,0,0,1-.71-0.9,2,2,0,0,1-.34-1,0.63,0.63,0,0,1,.13-0.4,0.39,0.39,0,0,1,.33-0.16,0.53,0.53,0,0,1,.41.29q0.2,0.29.56,0.79a2.7,2.7,0,0,0,.92.8,3,3,0,0,0,1.42.3,2.57,2.57,0,0,0,1.25-.36,2.65,2.65,0,0,0,1-.93l0.17-.29a1.42,1.42,0,0,1,.28-0.35,0.45,0.45,0,0,1,.3-0.12,0.3,0.3,0,0,1,.26.13A0.53,0.53,0,0,1,296.23,253.43Z" transform="translate(-170.01 -110.01)"/><path class="cls-2" d="M315.41,266v-5.21a3,3,0,0,0-.2-1.29,1,1,0,0,0-.93-0.39q-0.55,0-.55-0.28a0.34,0.34,0,0,1,.4-0.36l1,0,1,0h5.57l1,0,0.95,0a0.32,0.32,0,0,1,.38.34c0,0.2-.19.31-0.56,0.31a1,1,0,0,0-1.06.55,5.24,5.24,0,0,0-.21,1.75V268q0,2.14.72,2.3h0.83c0.17,0,.25.21,0.25,0.62l-0.15,3.56q0,0.42-.27.42a0.32,0.32,0,0,1-.3-0.34,6.64,6.64,0,0,0-.95-3,2.3,2.3,0,0,0-1.88-.73h-4a2.56,2.56,0,0,0-1.32.33,3.19,3.19,0,0,0-.94.83,8.48,8.48,0,0,0-.71,1.12l-0.74,1.4a2,2,0,0,1-.19.31,0.36,0.36,0,0,1-.29.19,0.26,0.26,0,0,1-.27-0.31,0.83,0.83,0,0,1,0-.25l0.08-.22v0l1-3.68a0.4,0.4,0,0,1,.37-0.36,1.73,1.73,0,0,1,.33.05,1.75,1.75,0,0,0,.37.05,5.87,5.87,0,0,0,.8-1.5A7.57,7.57,0,0,0,315.41,266Zm5.06,2v-7.83a0.74,0.74,0,0,0-.73-0.92h-2.4a1,1,0,0,0-1,.45,4.68,4.68,0,0,0-.21,1.71V266a7.37,7.37,0,0,1-1.13,4.16h4.89a0.67,0.67,0,0,0,.48-0.6A9.39,9.39,0,0,0,320.47,268Z" transform="translate(-170.01 -110.01)"/><path class="cls-2" d="M329.26,258.62V268q0,0.23,0,.48t0,0.36a1.86,1.86,0,0,0,.23,1,1.2,1.2,0,0,0,.92.43,4,4,0,0,1,.55.08,0.25,0.25,0,0,1,.15.28,0.27,0.27,0,0,1-.31.31q-0.41,0-1.2-.05t-1.15-.05q-0.4,0-1.2.05T326,271a0.28,0.28,0,0,1-.35-0.28,0.27,0.27,0,0,1,.16-0.3,3.32,3.32,0,0,1,.54-0.09,1.19,1.19,0,0,0,.93-0.42,1.94,1.94,0,0,0,.22-1c0-.08,0-0.21,0-0.4s0-.34,0-0.45v-5.27a3.66,3.66,0,0,0-.25-1.79,0.89,0.89,0,0,0-.73-0.23h-0.32c-0.2,0-.3-0.08-0.3-0.23a0.32,0.32,0,0,1,.09-0.24,0.75,0.75,0,0,1,.27-0.15l0.22-.08a4.86,4.86,0,0,0,1.14-.62,4.07,4.07,0,0,0,.94-0.84,0.86,0.86,0,0,1,.45-0.36C329.18,258.18,329.26,258.32,329.26,258.62Zm-0.88-2.89a0.93,0.93,0,0,1-.78-0.39,1.53,1.53,0,0,1-.3-1,1.59,1.59,0,0,1,.32-1,1,1,0,0,1,.81-0.42,0.89,0.89,0,0,1,.76.4,1.58,1.58,0,0,1,.29.94,1.68,1.68,0,0,1-.29,1A0.94,0.94,0,0,1,328.38,255.73Z" transform="translate(-170.01 -110.01)"/><path class="cls-2" d="M343.5,258.85a0.6,0.6,0,0,1,.63-0.31l1.46,0,0.89,0a1.68,1.68,0,0,1,.52.05,0.25,0.25,0,0,1,.13.26q0,0.34-.55.34a0.87,0.87,0,0,0-.73.31,1.49,1.49,0,0,0-.29.76,11.14,11.14,0,0,0-.05,1.2V268a6.08,6.08,0,0,0,.17,1.68,0.92,0.92,0,0,0,.86.62q0.7,0,.7.34c0,0.22-.15.34-0.45,0.34l-1,0-1,0-1.23,0-1.23,0c-0.3,0-.45-0.11-0.45-0.34s0.22-.34.67-0.34a1.15,1.15,0,0,0,1.07-.61,5,5,0,0,0,.2-1.69v-8h0l-4.3,10.26v0a0.53,0.53,0,0,1-.1.3,0.32,0.32,0,0,1-.28.15,0.29,0.29,0,0,1-.26-0.16,0.66,0.66,0,0,1-.09-0.32v0l-3.88-10-0.53,7.29c0,0.2,0,.49,0,0.87a2.49,2.49,0,0,0,.3,1.35,1.36,1.36,0,0,0,1.08.53c0.45,0,.68.11,0.68,0.34s-0.17.34-.5,0.34l-1,0-1,0-0.92,0-0.93,0a0.33,0.33,0,0,1-.4-0.34,0.25,0.25,0,0,1,.1-0.22,0.47,0.47,0,0,1,.2-0.08l0.3,0a1.63,1.63,0,0,0,.8-0.27,0.9,0.9,0,0,0,.31-0.54c0-.23.1-0.64,0.15-1.21l0.58-6.89c0-.28,0-0.64,0-1.07a1.44,1.44,0,0,0-.21-0.92,1.51,1.51,0,0,0-.89-0.23q-0.55,0-.55-0.36a0.24,0.24,0,0,1,.13-0.26,1.69,1.69,0,0,1,.52-0.05l1,0,1.42,0a0.71,0.71,0,0,1,.58.62l3.48,8.89Z" transform="translate(-170.01 -110.01)"/><path class="cls-1" d="M172.32,110.21s93.47,10.6,114.12,40.48c-0.27-.27,23.1,0,23.1,0S299.48,117.28,172.32,110.21Z" transform="translate(-170.01 -110.01)"/><path class="cls-11" d="M220.41,111.84s87.22,4.89,111.4,38.85c0-.27,26.9,0,26.9,0S327.47,114.29,220.41,111.84Z" transform="translate(-170.01 -110.01)"/><path class="cls-1" d="M172.32,239s93.47-10.6,114.12-40.48c-0.27.27,23.1,0,23.1,0S299.48,231.9,172.32,239Z" transform="translate(-170.01 -110.01)"/><path class="cls-11" d="M220.41,237.34s87.22-4.89,111.4-38.85c0,0.27,26.9,0,26.9,0S327.47,234.89,220.41,237.34Z" transform="translate(-170.01 -110.01)"/></svg>
